<?xml version="1.0" encoding="UTF-8"?>
<svg id="Layer_1" xmlns="http://www.w3.org/2000/svg" version="1.1" viewBox="0 0 4800 4800">
  <!-- Generator: Adobe Illustrator 29.5.1, SVG Export Plug-In . SVG Version: 2.1.0 Build 141)  -->
  <defs>
    <style>
      .st0 {
        fill: #468583;
      }

      .st1 {
        fill: #e2ad93;
      }

      .st2 {
        fill: #08213f;
      }

      .st3 {
        fill: #fee5d9;
      }

      .st4 {
        fill: #d5be9f;
      }

      .st5 {
        fill: #d78b52;
      }

      .st6 {
        fill: #9bd3d1;
      }

      .st7 {
        fill: #e0e9e8;
      }

      .st8 {
        fill: #243e4d;
      }

      .st9 {
        fill: #7aadac;
      }

      .st10 {
        fill: #eea279;
      }

      .st11 {
        fill: #d0614e;
      }

      .st12 {
        fill: #e98870;
      }

      .st13 {
        fill: #aed0ce;
      }

      .st14 {
        fill: #fdc09f;
      }
    </style>
  </defs>
  <path class="st10" d="M3873.52,3761.52c19.35,7.52,44.08,16.24,60.53,28.97,19.26,14.91,35.71,43.2,45.59,65.49,9.56,21.57,18.35,44.4,15.19,68.32-10.3-9.79-16.64-13.93-31.06-13.28-16.42.73-29.8,11.72-40.11,23.63-13.15,15.2-29.54,33.45-38.78,51.23-12-11.32-27.17-24.65-43.35-28.91l-.2-6.3c5.55-18.15,7.96-37.88,11.6-56.5l20.6-132.66Z"/>
  <path class="st10" d="M3448.17,4186.86c3.58-16.05,14.7-34.47,22.95-48.61,30.78-52.84,68.05-97.01,112.77-138.59,34.54-32.11,125.94-108.75,174.32-107.15,5.59,2.16,9.52,7.46,12.24,12.66,9.1,17.43,4.57,26.13-.45,43.6,18.6-6.06,38.26-14.25,57.41-5.41l7.73,4.69,6.18,2.63.2,6.3c16.18,4.26,31.36,17.59,43.35,28.91,9.24-17.78,25.63-36.03,38.78-51.23,10.31-11.92,23.69-22.9,40.11-23.63,14.42-.64,20.76,3.49,31.06,13.28,9.66,38.1,10.51,70.02-10.47,104.85l-1.41,2.21c21.36,37.68,44.28,65.28,32.27,111.08-4.5,17.18-14.2,32.07-24.02,46.61,8.68,9.08,13.7,12.8,13.37,26.22-.98,40.13-25.97,74.44-46.97,106.76-3.18,4.9-4.98,7.66-10.69,9.9,1.78,4.67.18,1.7,3.67,5.6,6.62,7.39,6.9,17.08,5.88,26.52-2.4,22.53-26.14,47.09-43.77,60.34-33.24,24.99-80.3,46.7-122.17,48.91-9.26.35-18.02,3.26-26.6,6.69-85.8,19.68-169.25,23.79-256.43,12.41-19.6-2.56-41.97-4.39-59.81-13.39,2.37-3.49,4.75-7.31,5.61-11.51,3.94-19.33.64-46.13.57-66.12l-5.67-214.53Z"/>
  <path class="st14" d="M3770,3948.77c18.6-6.06,38.26-14.25,57.41-5.41l7.73,4.69,6.18,2.63.2,6.3c-2.96,20.93-7.19,30.75-24.75,43.7-23.91,17.63-50.65,29.37-77.25,42.22l-145.03,68.5,50.79-54.18c7.47-7.42,15.44-17.25,24.27-22.92l100.46-85.52Z"/>
  <path class="st3" d="M3770,3948.77c18.6-6.06,38.26-14.25,57.41-5.41l7.73,4.69c-20.35,13.53-42.44,23.54-63.33,36.13-25.2,15.19-48.51,34.11-74.83,47.26-7.92,3.96-16.46,9.44-25.49,9.54-2.95-3.58-2.1-1.43-1.95-6.68l100.46-85.52Z"/>
  <path class="st14" d="M3884.87,3985.89c9.24-17.78,25.63-36.03,38.78-51.23,10.31-11.92,23.69-22.9,40.11-23.63,14.42-.64,20.76,3.49,31.06,13.28,9.66,38.1,10.51,70.02-10.47,104.85l-1.41,2.21c21.36,37.68,44.28,65.28,32.27,111.08-4.5,17.18-14.2,32.07-24.02,46.61,8.68,9.08,13.7,12.8,13.37,26.22-.98,40.13-25.97,74.44-46.97,106.76-3.18,4.9-4.98,7.66-10.69,9.9,1.78,4.67.18,1.7,3.67,5.6,6.62,7.39,6.9,17.08,5.88,26.52-2.4,22.53-26.14,47.09-43.77,60.34-33.24,24.99-80.3,46.7-122.17,48.91-9.26.35-18.02,3.26-26.6,6.69-7.93-9.56-13.63-18.42-17.42-30.29,1.73-8.55,3.49-12.29,10.53-17.92,15.67-12.52,43.67-21.42,62.12-29.83,40.1-18.26,82.31-38.31,118.21-64.03-46.64,13.69-99.53,40.21-148.68,39.23-8.16-.16-14.84-2-20.23-8.39-4.05-4.8-5.25-11.61-4.13-17.65,1.55-8.34,8.35-15.25,14.98-20.03,25.79-18.62,59.55-31.2,87.89-46.17,21.68-11.46,40.41-25.13,60.83-38.3,15.3-9.87,29.98-26.08,40.81-40.76-32.05,20.6-63.37,41.57-98.26,57.27-24.09,10.84-114.91,40.12-136.98,28.33-6.21-3.31-6.62-6.75-8.86-12.95.84-7.88,2.07-14.31,7.95-20.1,12.79-12.59,31.9-19.96,47.79-27.84,40.15-19.91,85.45-44.32,113.56-80.43l2.84-3.79c-4.7-9.46-4.16-19.75-4.59-30.11-13.68,7.75-26.15,19.1-38.66,28.68-13.57,10.41-27.96,19.56-42.49,28.57-17.37,10.78-46.78,26.31-67.53,20.2-6.02-1.77-6.24-3.33-8.99-8.51,2.69-32.91,31.96-58.74,52.55-82.46l57.71-66.91c13.23-15.32,27.89-30.38,38.59-47.61l1.4-2.33Z"/>
  <path class="st12" d="M3892.27,4116.24l75.39-71.87c-19.44,36.65-45.82,69.06-70.8,101.98-4.7-9.46-4.16-19.75-4.59-30.11Z"/>
  <path class="st2" d="M1545.2,1139.4c-28.56-71.96-32.86-159.97-23.7-235.89,15.79-130.88,88.8-266.53,193.19-347.8,58.12-45.26,127.46-65.33,200.87-55.1,14.23,1.98,28.81,4.18,42.66,8.13,4.92,1.41,14.74,6.57,19.3,6.65,3.52.07,26.73-18.85,32.03-21.78,39.83-22.09,89.63-35.89,134.43-43.08,171.96-27.62,389.2,10.23,531.54,113.88,104.09,75.8,162.83,178.87,183.3,305.34,7.55,51.19,12.45,101.33,11.46,153.18-15.31,5.55-32.24,11.75-48.4,13.91l-126.59,13.58c-203.85-3.56-401.34-66.47-575.19-172.21-36.3-22.08-69.42-48.26-104.59-71.9-12.22,34.45-25.22,68.79-43.22,100.72-32.12,56.99-79.34,108.22-126.75,152.92-29.56,27.87-60.84,52.5-85.43,85.34-13.12,17.53-23.52,36.07-31.61,56.4-5.07,12.74-8.79,25.28-11.86,38.65-2.78,12.09-2.55,24.41-11.54,33.56l-8.2,1.19-4.51-3.6c-2.25-42.98-4.35-84.69-39.24-115.77-19.23-17.12-41.74-26.75-67.75-25.16-13.7.83-27.09,4.99-40.17,8.85Z"/>
  <path class="st14" d="M1545.2,1139.4c13.08-3.86,26.48-8.02,40.17-8.85,26.02-1.58,48.52,8.04,67.75,25.16,34.89,31.07,36.99,72.79,39.24,115.77l4.51,3.6,8.2-1.19c8.98-9.15,8.76-21.47,11.54-33.56,3.08-13.36,6.8-25.91,11.86-38.65,8.09-20.33,18.48-38.86,31.61-56.4,24.59-32.84,55.87-57.46,85.43-85.34,47.41-44.7,94.63-95.93,126.75-152.92,18-31.93,31-66.27,43.22-100.72,35.17,23.63,68.3,49.82,104.59,71.9,173.85,105.74,371.34,168.65,575.19,172.21,23.78,53.79,32.56,97.88,27.92,156.51-.98,12.39-.88,27.51-5.23,39.09-1.82,1.43-7.62,4.99-8.56,6.72-2.58,4.77-3.38,15.72-5.09,21.51l-23.02,69.15-28.51,70.97-30.35,80.92c-17.95,43.77-42.76,93.82-50.48,140.47-11.34,26.51-22.48,55.44-38.52,79.43-7.73,7.28-12.62,19.02-17.85,28.32l-28.45,49.95-84.91,91.63c-76.81,63.47-157.09,114.71-247.16,157.64-30.25,11.93-52.87,20.96-86.13,16.2-1.57,1.19-3.65,1.92-4.72,3.57-2.69,4.13-4.27,18.53-5.27,23.87-3.45,18.31-7.19,36.27-12.25,54.22l-66.96,210.34-.95-.27c-1.3,14.4-7.7,22.64-15.51,34.23-66.99,19.68-147.75,11.17-213.82-7.99-140.62-40.77-260.55-150.41-337.29-272.52-20.68-32.9-36.28-69.1-54.99-103.17,15.55-5.44,27.18-24.13,37.35-36.65l60.1-76.28c64.18-84.22,116.63-171.05,148.7-272.8,5.94-18.85,13.72-39.03,15.79-58.78,2.29-21.77-4.34-50.18-7.29-72.11l-33.31-6.52c-46.02-13.82-85.5-50.54-107.03-92.89-23.88-46.99-28.31-104.18-11.08-154.04,14.94-43.24,44.66-71.67,84.79-91.74Z"/>
  <path class="st12" d="M1587.26,1217.27c10.83,6.27,18.97,13.67,22.61,26.09,7.06,24.12-3.13,53.51-10.05,76.72-2.7,9.05-5.63,20.95-10.74,28.79l-3.18,3.87c-4.59-25.84,8.26-54.77,10.57-80.98.38-4.33,2.37-13.87,1.38-17.86-2.4-9.68-13.41-15.36-15.33-25.21-.77-3.97,2.82-8.07,4.74-11.42Z"/>
  <path class="st11" d="M2037.97,1723.53c11.52,3.31,16.85,15.35,25.01,24.16,11.05,11.93,22.61,23.15,36.15,32.21,47.95,32.09,97.5,38.62,153.21,27.52,4.98,4.25,4.15,5.92,5.48,12.09-25.29,8.63-52.97,9.75-79.31,6.53-50.2-6.12-90.37-31.29-124.36-67.8-10.25-11.02-16.83-19.62-16.19-34.72Z"/>
  <path class="st10" d="M1575.15,1398.87l-2.62.25,1.88,3.03c-2.62.45-4.97,1-7.58.11-4.76-1.63-8.01-4.5-10.25-8.94-6.24-12.4-14.43-23.96-19.36-37.12l-.9-2.66-5.12-17.6c-5.4-16.78-4.13-46.04,0-63.22,5.05-20.92,13.95-45.97,33.22-57.48,8.32-.53,15.1-1.49,22.83,2.04-1.93,3.35-5.52,7.45-4.74,11.42,1.93,9.85,12.93,15.53,15.33,25.21.99,3.99-1,13.53-1.38,17.86-2.31,26.2-15.16,55.13-10.57,80.98l-7.82,8.59c6.96,14.77,23.13,33.58,21.53,49.31-3.05,1.88-3.67,3.46-7.4,2.31-7.19-2.21-12.49-8.42-17.05-14.08Z"/>
  <path class="st12" d="M1575.15,1398.87c-7.51-15.9-14.26-31.19-16.4-48.84-2.49-20.55-3.45-54.21,11.16-70.47,4.43-4.94,6.75-6.42,13.29-6.87,3.72,9.62-8.25,26.44-10.45,37.29-2.87,14.08-1.74,34.33,3.71,47.59l1.62,3.76c6.96,14.77,23.13,33.58,21.53,49.31-3.05,1.88-3.67,3.46-7.4,2.31-7.19-2.21-12.49-8.42-17.05-14.08Z"/>
  <path class="st10" d="M1978.79,2350.66c-4.27-11.07-15.17-21.89-22.55-31.19l-35.46-48.16c-27.25-40.5-51.85-83.62-73.68-127.28-45.92-91.83-79.5-190.02-110.37-287.77-12.14-38.46-22.01-78.09-35.81-115.94-3.21-8.8-6.58-17.7-11.22-25.86-7.75-13.64-31.53-36.77-31.5-50.98,12.27,12.85,22.84,28.12,33.75,42.19l74.81,98.67,37.01,46.66c3.42,4.36,9.65,10.09,11.11,15.41l.3,1.99c71.96,79.34,146.24,147.11,246.63,188.27,1.79.52,5.61,1.31,7.13,2.26-1.57,1.19-3.65,1.92-4.72,3.57-2.69,4.13-4.27,18.53-5.27,23.87-3.45,18.31-7.19,36.27-12.25,54.22l-66.96,210.34-.95-.27Z"/>
  <path class="st12" d="M1815.18,1868.4c71.96,79.34,146.24,147.11,246.63,188.27l-3.71,2.32-31.93-8.2c-67.36-23.82-128.02-84.62-174.67-136.5-13.05-14.52-27.79-28.07-36.33-45.88Z"/>
  <path class="st0" d="M2858.8,869.75c200.56-20.91,405.08,12.56,565.95,142.63,59.61,48.19,107.01,104.23,149.15,167.9,57.74,87.25,96.97,186.67,117.37,289.26,36.8,185.07,23.68,387.34,130.63,551.85,45.05,69.29,108.69,119.47,173.89,168.59,36.02,27.13,71.51,53.67,103.46,85.64,92.7,92.74,141.69,214.93,155.04,344.01,7.78,75.25,4.43,150.75-16.88,223.67-12.97,44.36-31.41,89.46-53.17,130.19-26.42,49.46-58.61,95.8-87.02,144.14-56.83,96.67-106.25,212.3-87.17,326.57,10.91,65.3,52.05,122,93.99,171,11.52,13.45,27.33,27.38,36.25,42.45,4.38,7.4,2.24,10.44-.74,17.71-15.24,13.35-38.74,11.78-57.88,10.55-75.54-4.87-148.29-45.93-197.44-102.46-.93-200.02-6.94-407.11-60.78-601.01-27.36-98.54-68.95-194.31-118.49-283.63-26.64-48.03-57.57-90.93-87.42-136.68-30.33-36.25-59.32-75.52-94.28-107.46-86.08-2.94-171.98,8.47-256.08,26.63-77.68,16.77-148.32,37.33-220.65,70.78l-2.21-46.67-13.91-109.51c-99.24-.79-191.46-23.08-275.44-77.6-173.77-112.82-221.18-311.4-262.36-501.33l-5.48-23.48,28.45-49.95c5.23-9.3,10.12-21.04,17.85-28.32,16.04-23.99,27.17-52.92,38.52-79.43,7.72-46.65,32.53-96.7,50.48-140.47l30.35-80.92,28.51-70.97,23.02-69.15c1.71-5.79,2.51-16.74,5.09-21.51.94-1.73,6.74-5.29,8.56-6.72,4.35-11.58,4.25-26.7,5.23-39.09,4.64-58.63-4.14-102.72-27.92-156.51l126.59-13.58c16.16-2.16,33.09-8.35,48.4-13.91.99-51.85-3.91-101.99-11.46-153.18Z"/>
  <path class="st8" d="M2695.27,1050.42l126.59-13.58c-24.33,71.77-45.75,140.97-86.94,205.63-2.78,4.36-3.12,8.37-3.94,13.4l-7.54,7.35-4.03-.06-1.44-17.14c4.35-11.58,4.25-26.7,5.23-39.09,4.64-58.63-4.14-102.72-27.92-156.51Z"/>
  <path class="st8" d="M3577.4,1862.14l7.39-.03c-2.28,20.24-12.11,38.22-19.12,57.2-7.79,21.11-14.29,43.41-19.02,65.39-27.16,126.32-2.76,262.71,22.69,387.15,6.82,33.34,16.05,67.53,25.79,100.15l18.23,55.95c2.29,6.71,7.35,17.47,7.47,24.39.05,2.62-2.12,7.38-3.29,9.76-30.33-36.25-59.32-75.52-94.28-107.46-19.92-31.98-34.17-68.99-47.1-104.24-24.39-66.46-42.6-133.99-55.28-203.63l-7.25-56.75c21.66-56.35,37.4-113.21,48.71-172.44,46.56-1.54,82.87-23.6,115.05-55.45Z"/>
  <path class="st1" d="M2752.96,1239.6c10.36-9.54,21.1-19.59,33.56-26.32,24.26-13.1,60.2-13.45,87.1-12.2,37.96,1.77,75.15,12.06,110.76,24.87,98.73,35.51,185.61,97.98,255.48,175.82,64,71.31,113.56,153.19,155.4,239.09l34.91,76.79c21.23-34.79,45.19-71.86,87.79-81.76,18.13-4.21,37.29-2.47,53.17,7.86,25.71,16.72,44.71,48.07,49.85,78.19,7.32,42.88-4.57,88.35-29.94,123.31l-13.65,16.87c-32.18,31.86-68.5,53.91-115.05,55.45-11.32,59.24-27.05,116.1-48.71,172.44l7.25,56.75c12.68,69.64,30.89,137.17,55.28,203.63,12.94,35.25,27.18,72.26,47.1,104.24-86.08-2.94-171.98,8.47-256.08,26.63-77.68,16.77-148.32,37.33-220.65,70.78l-2.21-46.67-13.91-109.51c-99.24-.79-191.46-23.08-275.44-77.6-173.77-112.82-221.18-311.4-262.36-501.33l-5.48-23.48,28.45-49.95c5.23-9.3,10.12-21.04,17.85-28.32,16.04-23.99,27.17-52.92,38.52-79.43,7.72-46.65,32.53-96.7,50.48-140.47l30.35-80.92,28.51-70.97,23.02-69.15c1.71-5.79,2.51-16.74,5.09-21.51.94-1.73,6.74-5.29,8.56-6.72l1.44,17.14,4.03.06,7.54-7.35,21.99-16.26Z"/>
  <rect class="st1" x="3186" y="5358" width="360" height="360"/>
  <path class="st10" d="M2487.14,1793.46l28.45-49.95c5.23-9.3,10.12-21.04,17.85-28.32l11.06,6.02c-22.72,29.02-36.68,62.63-51.88,95.73l-5.48-23.48Z"/>
  <path class="st12" d="M3078.72,2082.49c4.88,4.08,7.85,5.53,9.89,11.65-19.43,24.95-41.99,43.23-72.63,52.18l-4.26,1.22-10.24,2.73c-33.85,6.17-69.74-4.65-97.15-24.29-4.71-7.02-7.53-8.54-6.29-17.12,9.83-2,36.3,19.71,48.56,23.53,16.2,5.06,34.88,4.82,51.56,2.77,34.8-4.28,59.85-26.06,80.55-52.68Z"/>
  <path class="st12" d="M2730.97,1255.87l21.99-16.26c-38.96,75.37-67.87,156.85-101.23,234.87l-34.63,79.35c-8.92,19.35-26.67,48.85-29.12,69.53l-16.03,12.41c7.72-46.65,32.53-96.7,50.48-140.47l30.35-80.92,28.51-70.97,23.02-69.15c1.71-5.79,2.51-16.74,5.09-21.51.94-1.73,6.74-5.29,8.56-6.72l1.44,17.14,4.03.06,7.54-7.35Z"/>
  <path class="st1" d="M3030.42,2395.87c75.23-8.58,139.41-30.37,203.95-71.09,25.71-16.22,45.4-37.65,65.59-60,24.63-27.26,48.88-55.96,68.51-87.09,17.39-27.58,31.44-58.1,45.16-87.66l7.25,56.75c12.68,69.64,30.89,137.17,55.28,203.63,12.94,35.25,27.18,72.26,47.1,104.24-86.08-2.94-171.98,8.47-256.08,26.63-77.68,16.77-148.32,37.33-220.65,70.78l-2.21-46.67-13.91-109.51Z"/>
  <path class="st6" d="M2487.14,1793.46l5.48,23.48c41.18,189.94,88.59,388.51,262.36,501.33,83.98,54.52,176.2,76.81,275.44,77.6l13.91,109.51,2.21,46.67-24.29,15.12c-48.88,27.39-84.8,59.87-123.27,99.99-67.07,73.06-119.25,152.05-170.46,236.57l-199.44,357.2-59.89,107.98-9.88,17.63-27.84,46.83c-12.24,27.7-31.61,53.03-47.06,79.13-26.58,44.9-52.01,89.77-82.19,132.43-42.68,60.3-91.51,113.35-142.95,166.22-75.6-16.84-149.8-41.91-224.67-62.11l-417.85-115.03-85.81-26.43c-8.47-2.71-24.48-10.16-32.9-10.17-.04,0-4.24,2.41-4.58,2.65l-.9.93-1.83-1.36c-35.68,61.18-60.55,134.79-81.45,202.49-10.5,34.04-21.93,69.71-25.48,105.29l-242.28-200.44c-16.98,1.87-33.26,3.05-50.33,1.74-14.07-3.05-30.75-2.7-45.22-4.22-26.03-2.72-51.93-7.49-76.95-15.28-98.76-30.75-214.68-108.77-263.69-201.34-1.56-7.44-2.49-13.8-2.22-21.41-12.54-25.51-31.31-46.32-42.71-73.44-24.77-58.95-25.22-131.58-1.36-190.8,2.45,2.1,1.57.92,3.06,4.32,15.4,34.99,43.13,62.93,70.52,89.05,12.07,11.51,22.97,23.07,38.38,29.94-7.26-14.54-25.94-27.42-37.88-38.76-23.11-21.95-56.22-55.29-68.97-85.21-9.8-23.01-12.8-54.5-3.86-78.12,2.85-7.53,7.49-20.74,14.97-24.06,20.09,42.01,103.07,174.72,143.03,193.32-9.39-25.05-31.64-44.01-47.91-65.12-32.29-41.92-65.21-83-89.78-129.97-2.69-7.02-5.15-15.12-5.92-22.61-.92-9.03,1.74-18.94,7.72-25.77,8.97-10.25,17.42-9.69,30.03-10.53,12.27-64.84,23.26-129.27,40.34-193.13,25.46-95.22,63.03-188.5,107.57-276.34,58.54-115.42,144.9-223.08,241.57-308.76,69.46-61.56,145.64-115.3,220.55-169.9l86.8-59.44c14.85-10.1,30.88-24.41,47.93-29.9,18.71,34.06,34.31,70.27,54.99,103.17,76.74,122.11,196.67,231.75,337.29,272.52,66.07,19.16,146.83,27.67,213.82,7.99,7.8-11.59,14.2-19.83,15.51-34.23l.95.27,66.96-210.34c5.06-17.95,8.8-35.91,12.25-54.22,1-5.34,2.58-19.73,5.27-23.87,1.08-1.65,3.15-2.38,4.72-3.57,33.26,4.76,55.88-4.28,86.13-16.2,90.07-42.93,170.35-94.17,247.16-157.64l84.91-91.63Z"/>
  <path class="st5" d="M2423.1,3335.98c13.84,11.31,29.42,25.95,46.09,32.93l-9.88,17.63-27.84,46.83c-4.44-7.19-3.31-21.93-3.74-30.65l-4.63-66.75Z"/>
  <path class="st2" d="M2068.94,2058.93c33.26,4.76,55.88-4.28,86.13-16.2,14.72,44.42,30.48,87.11,54.71,127.4,36.5,60.68,86.45,109.95,103.83,180.66,28.86,117.45-23.34,231.33-61.83,340.05-6.36-22.2-7.54-46.52-11.18-69.34l-23.39-111.33c-36.18-138.18-95.97-270.2-154.9-399.76l-24.66,97.42-23.39,72.66-9.18,24.59-9.77,23.61-1.12,3.25c-3.15,8.2-6.44,15.14-14.46,19.01l66.96-210.34c5.06-17.95,8.8-35.91,12.25-54.22,1-5.34,2.58-19.73,5.27-23.87,1.08-1.65,3.15-2.38,4.72-3.57Z"/>
  <path class="st1" d="M580.6,3097.61c-2.69-7.02-5.15-15.12-5.92-22.61-.92-9.03,1.74-18.94,7.72-25.77,8.97-10.25,17.42-9.69,30.03-10.53l1.85,2.34c18.84,24.32,32.23,51.72,52.54,75.25,41.93,48.57,90.29,82.8,144.04,116.94,25.69,16.31,57.34,36.88,87.98,41.26,10.05,1.44,18.88,1.47,28.68-1.44,3.29-6.4,2.1-10.57.09-17.56-10.57-36.79-57.86-94.32-52.68-130.09,5.26-6.05,11.16-10.47,19.59-10.56,22.13-.22,42.7,22.88,56.28,37.98,53.06,59.03,77.83,143.56,106.55,216.28,9.64,24.42,18.64,50.87,33.63,72.6,14.19,20.56,33.74,36.11,54.94,48.98,55.99,33.98,120.6,56.4,181.49,79.87,21.03,8.11,43.32,15.35,63.61,25.12l-.29,3.98c-35.68,61.18-60.55,134.79-81.45,202.49-10.5,34.04-21.93,69.71-25.48,105.29l-242.28-200.44c-16.98,1.87-33.26,3.05-50.33,1.74-14.07-3.05-30.75-2.7-45.22-4.22-26.03-2.72-51.93-7.49-76.95-15.28-98.76-30.75-214.68-108.77-263.69-201.34-1.56-7.44-2.49-13.8-2.22-21.41-12.54-25.51-31.31-46.32-42.71-73.44-24.77-58.95-25.22-131.58-1.36-190.8,2.45,2.1,1.57.92,3.06,4.32,15.4,34.99,43.13,62.93,70.52,89.05,12.07,11.51,22.97,23.07,38.38,29.94-7.26-14.54-25.94-27.42-37.88-38.76-23.11-21.95-56.22-55.29-68.97-85.21-9.8-23.01-12.8-54.5-3.86-78.12,2.85-7.53,7.49-20.74,14.97-24.06,20.09,42.01,103.07,174.72,143.03,193.32-9.39-25.05-31.64-44.01-47.91-65.12-32.29-41.92-65.21-83-89.78-129.97Z"/>
  <path class="st0" d="M605.33,3487.87c-1.56-7.44-2.49-13.8-2.22-21.41,76.68,98.3,206.85,179.6,331.38,195.61,16.56,2.13,38.36-2.57,53.66,1.26,2.97.74,10.13,7.21,12.98,9.43l40.4,34.2c-16.98,1.87-33.26,3.05-50.33,1.74-14.07-3.05-30.75-2.7-45.22-4.22-26.03-2.72-51.93-7.49-76.95-15.28-98.76-30.75-214.68-108.77-263.69-201.34Z"/>
  <path class="st0" d="M2487.14,1793.46l5.48,23.48c41.18,189.94,88.59,388.51,262.36,501.33,83.98,54.52,176.2,76.81,275.44,77.6l13.91,109.51,2.21,46.67-24.29,15.12c-48.88,27.39-84.8,59.87-123.27,99.99-67.07,73.06-119.25,152.05-170.46,236.57l-199.44,357.2-59.89,107.98c-16.67-6.98-32.25-21.62-46.09-32.93-25.65-29.22-56.87-55.1-83.7-83.54-74.26-78.74-120.3-175.4-132.02-282.9-10.62-97.33,14.41-187.35,44.4-278.7,38.49-108.71,90.69-222.6,61.83-340.05-17.38-70.71-67.33-119.98-103.83-180.66-24.23-40.29-39.99-82.98-54.71-127.4,90.07-42.93,170.35-94.17,247.16-157.64l84.91-91.63Z"/>
  <path class="st7" d="M3046.54,2552.05c72.33-33.45,142.97-54,220.65-70.78,84.1-18.15,170.01-29.57,256.08-26.63,34.96,31.94,63.95,71.2,94.28,107.46,29.85,45.75,60.77,88.65,87.42,136.68,49.54,89.32,91.13,185.1,118.49,283.63,53.84,193.9,59.85,401,60.78,601.01l-10.72,178.09-20.6,132.66c-3.64,18.62-6.06,38.35-11.6,56.5l-6.18-2.63-7.73-4.69c-19.14-8.83-38.81-.65-57.41,5.41,5.02-17.47,9.55-26.17.45-43.6-2.72-5.2-6.66-10.5-12.24-12.66-48.38-1.61-139.78,75.03-174.32,107.15-44.72,41.58-81.98,85.75-112.77,138.59-8.24,14.14-19.36,32.55-22.95,48.61l5.67,214.53c.07,19.99,3.37,46.79-.57,66.12-.86,4.2-3.24,8.02-5.61,11.51,17.84,9,40.21,10.83,59.81,13.39,87.19,11.38,170.63,7.27,256.43-12.41,8.58-3.43,17.34-6.34,26.6-6.69l115.45,326.69H786.54c-32.4-113.58-53.5-232.65-74.95-348.72-46.13-249.56-78.35-498.89-94.62-752.22l-9.6-161.18c-.56-16.81-2.61-33.17-2.04-50.01,49.01,92.56,164.93,170.58,263.69,201.34,25.01,7.79,50.92,12.56,76.95,15.28,14.48,1.52,31.16,1.17,45.22,4.22,17.07,1.31,33.35.13,50.33-1.74l242.28,200.44c3.54-35.57,14.97-71.25,25.48-105.29,20.9-67.7,45.77-141.31,81.45-202.49l1.83,1.36.9-.93c.34-.24,4.55-2.65,4.58-2.65,8.42,0,24.43,7.45,32.9,10.17l85.81,26.43,417.85,115.03c74.86,20.2,149.07,45.27,224.67,62.11,51.44-52.87,100.27-105.92,142.95-166.22,30.18-42.66,55.61-87.53,82.19-132.43,15.45-26.1,34.82-51.43,47.06-79.13l27.84-46.83,9.88-17.63,59.89-107.98,199.44-357.2c51.21-84.52,103.39-163.51,170.46-236.57,38.47-40.12,74.39-72.6,123.27-99.99l24.29-15.12Z"/>
  <path class="st13" d="M2764.03,4053.09c219.38-245.01,427.41-497.69,598.08-779.61l1.48,3.08-74.96,152.58-224.79,391.43-122.1,188.25-39,55.57c-6.37,9.17-14.14,18.82-18.5,29.13l-67.53-21.84-52.68-18.58Z"/>
  <path class="st0" d="M1371.4,3971.01l144.7,93.08,262.72,143.38c93.86,47.23,189.67,92.67,289.47,126.01,55.64,18.59,112.1,34.19,170.64,40.01,41.35,4.11,82.66,4.76,123.4-4.83,136.18-32.04,247.17-142.26,337.76-243.34l63.94-72.22,52.68,18.58c-125.42,153.95-274.71,347.22-488.19,368.55-170.25,17.02-341.28-56.34-481.77-145.57-36.7-23.31-69.41-53.25-107.19-74.85l17.94,24.17c-3.33-.93-5.31-1.73-7.88-4.16-27.46-25.97-69.4-44.67-101.95-64.96l-92.72-60.8-112.05-79.99c-18.29-13.04-36.58-25.33-53.69-39.95-4.23-3.61-11.64-8.32-14.59-12.59-1.48-2.14-2.39-7.83-3.21-10.53Z"/>
  <path class="st6" d="M2816.71,4071.67l67.53,21.84c123.92,36.45,247.39,61.46,375.83,76.1l105.5,8.99c27.63,1.78,55.44,2.25,82.61,8.26l5.67,214.53c.07,19.99,3.37,46.79-.57,66.12-.86,4.2-3.24,8.02-5.61,11.51,17.84,9,40.21,10.83,59.81,13.39,87.19,11.38,170.63,7.27,256.43-12.41,8.58-3.43,17.34-6.34,26.6-6.69l115.45,326.69h-1302.17l-2.81-55.55-6.59-171.6-92.52-5.77c-40.55-2.77-83.83-5.13-123.45-14-133.63-15.6-271.77-41.63-390.92-107.05-58.7-32.23-112.84-74.52-160.18-121.74-25.02-24.96-47.05-53.3-69.83-80.33l-17.94-24.17c37.78,21.6,70.49,51.54,107.19,74.85,140.49,89.24,311.52,162.6,481.77,145.57,213.49-21.34,362.77-214.61,488.19-368.55Z"/>
  <path class="st7" d="M3763.91,4480c8.58-3.43,17.34-6.34,26.6-6.69l115.45,326.69h-1302.17l-2.81-55.55-6.59-171.6c47.48,3.97,95.98,2.9,143.62,2.61,161.09-.96,321.81-14.58,480.9-39.56,72.12-11.32,144.92-23.61,215.01-44.3l13.74-12.59c17.84,9,40.21,10.83,59.81,13.39,87.19,11.38,170.63,7.27,256.43-12.41Z"/>
  <path class="st13" d="M2594.39,4572.86c47.48,3.97,95.98,2.9,143.62,2.61,161.09-.96,321.81-14.58,480.9-39.56,72.12-11.32,144.92-23.61,215.01-44.3-2.38,4.13-4.91,8.25-9.08,10.79-9.24,5.6-21.37,9.02-31.52,12.83l-53.67,20.43c-123.9,46.92-250.04,91.36-378.02,125.85l-360.65,82.95-6.59-171.6Z"/>
  <path class="st6" d="M605.33,3487.87c49.01,92.56,164.93,170.58,263.69,201.34,25.01,7.79,50.92,12.56,76.95,15.28,14.48,1.52,31.16,1.17,45.22,4.22,17.07,1.31,33.35.13,50.33-1.74l242.28,200.44c3.54-35.57,14.97-71.25,25.48-105.29,20.9-67.7,45.77-141.31,81.45-202.49l1.83,1.36-36.09,83.37c-29.65,73.4-53.13,147.79-68.89,225.42l63.07,45.77c5.41,3.85,17.28,10.06,20.75,15.44.82,2.7,1.73,8.39,3.21,10.53,2.94,4.27,10.35,8.97,14.59,12.59,17.11,14.62,35.4,26.92,53.69,39.95l112.05,79.99,92.72,60.8c32.55,20.29,74.49,38.99,101.95,64.96,2.57,2.43,4.55,3.22,7.88,4.16,22.78,27.03,44.81,55.37,69.83,80.33,47.34,47.22,101.48,89.51,160.18,121.74,119.16,65.42,257.29,91.46,390.92,107.05,39.62,8.87,82.9,11.24,123.45,14l92.52,5.77,6.59,171.6,2.81,55.55H786.54c-32.4-113.58-53.5-232.65-74.95-348.72-46.13-249.56-78.35-498.89-94.62-752.22l-9.6-161.18c-.56-16.81-2.61-33.17-2.04-50.01Z"/>
  <path class="st9" d="M2378.42,4553.09c39.62,8.87,82.9,11.24,123.45,14l92.52,5.77,6.59,171.6,2.81,55.55h-232.65l7.28-246.91Z"/>
  <rect class="st2" x="1492.51" y="5390.77" width="312.47" height="312.47"/>
  <rect class="st4" x="1898.51" y="5390.77" width="312.47" height="312.47"/>
  <rect class="st0" x="2315.14" y="5390.77" width="312.47" height="312.47"/>
  <rect class="st6" x="2738.53" y="5390.77" width="312.47" height="312.47"/>
</svg>